<?xml version="1.0" encoding="UTF-8"?>
<svg width="336px" height="315px" viewBox="0 0 336 315" version="1.1" xmlns="http://www.w3.org/2000/svg" xmlns:xlink="http://www.w3.org/1999/xlink">
    <!-- Generator: Sketch 53.1 (72631) - https://sketchapp.com -->
    <title>Group 3</title>
    <desc>Created with Sketch.</desc>
    <g id="Page-1" stroke="none" stroke-width="1" fill="none" fill-rule="evenodd">
        <g id="Icon" transform="translate(-88.000000, -137.000000)">
            <g id="Group-3" transform="translate(88.000000, 127.000000)">
                <rect id="Rectangle" x="0" y="0" width="336" height="336"></rect>
                <g id="running_filled" transform="translate(0.000000, 10.000000)" fill-rule="nonzero">
                    <g id="Group-2">
                        <path d="M302.413393,-1.42108547e-14 C283.888283,-1.42108547e-14 268.826785,15.0128187 268.826785,33.478055 C268.826785,51.9432981 283.888283,66.9561101 302.413393,66.9561101 C320.938509,66.9561101 336,51.9432981 336,33.478055 C336,15.0128187 320.938509,-1.42108547e-14 302.413393,-1.42108547e-14 Z M185.280099,0.418475688 C184.151797,0.418475688 183.075978,0.470788497 182.131354,0.627713532 L112.439144,8.16027592 C106.456529,9.86033173 90.5028908,14.2020203 92.4970957,26.9916819 C93.3367609,33.6872929 102.704274,36.8258606 110.96973,36.8258606 C111.966836,36.8258606 112.937697,36.6950886 113.488725,36.6166227 L178.772694,35.3611956 L201.863486,53.3556502 L149.804245,89.7630351 C135.713615,99.9633833 122.961197,113.276139 135.529937,135.167647 L181.921438,201.91452 C165.206855,202.123757 120.573404,202.699165 110.549897,203.79766 C94.5175383,205.680801 92.0772631,215.096504 92.0772631,220.536688 C92.0772631,228.853895 97.9811572,237.275715 110.96973,237.275715 L219.076623,237.275715 C227.814387,237.275715 234.584191,234.084841 237.759173,228.696964 C240.619281,223.884493 240.409365,217.790443 236.919508,211.53946 C232.117671,202.594546 198.006273,150.912798 189.898257,138.306215 L258.960719,94.5755055 C269.194142,88.0891323 271.529459,78.1241817 265.468124,67.3745858 C260.745008,58.6389091 249.173373,40.9583113 248.884737,40.5921417 C248.412429,39.6505714 247.546519,37.7674309 195.98583,3.97551904 C192.994526,1.59543689 189.268509,0.418475688 185.280099,0.418475688 Z M271.765613,101.480354 C270.060045,103.023485 268.197036,104.540456 266.097873,105.874349 L236.499675,124.705755 L238.388922,135.795361 C238.441404,136.056911 238.49388,136.396921 238.598838,136.632312 C240.724239,141.549402 243.505633,146.361872 251.403732,147.303442 C251.849803,147.277289 297.795234,144.58335 307.871216,144.58335 C326.501291,143.432542 329.88619,135.115341 330.33226,130.145939 C330.594659,126.013495 329.807469,122.927233 327.813264,120.730236 C324.612044,117.199346 319.574053,116.990108 314.168705,116.754717 C312.987928,116.702411 311.702192,116.650098 310.390212,116.545479 L273.025111,114.662339 L271.765613,101.480354 Z" id="Shape" fill="#000000"></path>
                        <g id="Group" transform="translate(0.000000, 56.838132)">
                            <path d="M5.38183248,0.0745611206 C1.99693387,0.780740518 -0.285907533,3.91930818 0.0289669123,7.3194198 C0.343841358,10.7456912 3.20394922,13.3873173 6.64133026,13.4657831 L134.270439,13.4657831 C136.92063,13.8581058 139.544584,12.6811446 140.98776,10.4318344 C142.430936,8.20868398 142.430936,5.33166028 140.98776,3.10850986 C139.544584,0.859206384 136.92063,-0.317761511 134.270439,0.0745611206 L6.64133026,0.0745611206 C6.22149767,0.048408064 5.80166508,0.048408064 5.38183248,0.0745611206 Z" id="Path" fill="#E42727"></path>
                            <path d="M5.38183248,33.5526162 C1.99693387,34.2587956 -0.285907533,37.3973632 0.0289669123,40.7974748 C0.343841358,44.2237462 3.20394922,46.8653723 6.64133026,46.9438382 L100.683831,46.9438382 C103.334023,47.3361608 105.957977,46.1591996 107.401153,43.9098894 C108.844329,41.686739 108.844329,38.8097153 107.401153,36.5865649 C105.957977,34.3372614 103.334023,33.1602935 100.683831,33.5526162 L6.64133026,33.5526162 C6.22149767,33.5264631 5.80166508,33.5264631 5.38183248,33.5526162 Z" id="Path" fill="#1B7FF4"></path>
                            <path d="M5.38183248,67.0306712 C1.99693387,67.7368506 -0.285907533,70.8754183 0.0289669123,74.2755299 C0.343841358,77.7018013 3.20394922,80.3434274 6.64133026,80.4218932 L100.683831,80.4218932 C103.334023,80.8142159 105.957977,79.6372547 107.401153,77.3879445 C108.844329,75.1647941 108.844329,72.2877704 107.401153,70.06462 C105.957977,67.8153165 103.334023,66.6383486 100.683831,67.0306712 L6.64133026,67.0306712 C6.22149767,67.0045182 5.80166508,67.0045182 5.38183248,67.0306712 Z" id="Path" fill="#1B7FF4"></path>
                            <path d="M5.38183248,100.508726 C1.99693387,101.214906 -0.285907533,104.353473 0.0289669123,107.753585 C0.343841358,111.179856 3.20394922,113.821482 6.64133026,113.899948 L127.553117,113.899948 C130.203309,114.292271 132.827263,113.11531 134.270439,110.866 C135.713615,108.642849 135.713615,105.765825 134.270439,103.542675 C132.827263,101.293372 130.203309,100.116404 127.553117,100.508726 L6.64133026,100.508726 C6.22149767,100.482573 5.80166508,100.482573 5.38183248,100.508726 Z" id="Path" fill="#E42727"></path>
                        </g>
                    </g>
                    <path d="M159.561162,254 C149.362989,264.517241 138.163448,276.059915 132.998483,282.186207 C123.775334,292.913793 122.457737,303.457326 129.414629,311.213793 C132.471446,313.921984 135.633669,315 138.9013,315 C146.253472,315 153.921866,309.189226 160.826051,303.010345 C168.30998,296.410774 193.713177,271.248276 211,254 L159.561162,254 Z" id="Path" fill="#000000"></path>
                </g>
            </g>
        </g>
    </g>
</svg>