<svg xmlns="http://www.w3.org/2000/svg" xmlns:xlink="http://www.w3.org/1999/xlink" viewBox="0 0 50 50" version="1.1">
<g id="surface1">
<path style=" " d="M 27.59375 2.96875 C 27.394531 2.960938 27.191406 2.972656 27 3 C 26.980469 3.003906 26.957031 2.996094 26.9375 3 L 16.6875 4.09375 C 16.632813 4.101563 16.582031 4.109375 16.53125 4.125 C 15.789063 4.335938 14.996094 4.597656 14.3125 5.09375 C 13.636719 5.582031 13.078125 6.523438 13.21875 7.53125 C 13.222656 7.546875 13.246094 7.546875 13.25 7.5625 C 13.328125 8.058594 13.597656 8.449219 13.90625 8.6875 C 14.222656 8.933594 14.5625 9.082031 14.90625 9.1875 C 15.558594 9.390625 16.210938 9.460938 16.8125 9.40625 C 16.839844 9.402344 16.878906 9.410156 16.90625 9.40625 L 26.34375 9.1875 L 29.21875 11.4375 L 22.03125 16.46875 C 22.019531 16.480469 22.011719 16.488281 22 16.5 C 20.84375 17.339844 19.800781 18.242188 19.25 19.5 C 18.699219 20.757813 18.8125 22.320313 19.71875 23.90625 C 19.738281 23.929688 19.757813 23.949219 19.78125 23.96875 L 25.8125 32.84375 C 24.871094 32.855469 24.273438 32.84375 22.59375 32.875 C 19.9375 32.925781 17.171875 32.972656 16.09375 33.09375 C 15.105469 33.210938 14.289063 33.542969 13.71875 34.09375 C 13.148438 34.644531 12.90625 35.394531 12.90625 36.09375 C 12.90625 36.765625 13.125 37.523438 13.6875 38.125 C 14.25 38.726563 15.121094 39.09375 16.1875 39.09375 L 20.9375 39.09375 C 19.347656 40.722656 17.175781 42.984375 16.03125 44.34375 C 15.347656 45.140625 14.890625 45.949219 14.75 46.8125 C 14.609375 47.675781 14.851563 48.589844 15.4375 49.25 C 15.464844 49.285156 15.496094 49.316406 15.53125 49.34375 C 16.164063 49.90625 17.15625 50.1875 18.0625 49.9375 C 18.96875 49.6875 19.820313 49.105469 20.875 48.15625 C 21.808594 47.332031 24.109375 45.046875 26.25 42.90625 C 28.242188 40.914063 29.792969 39.335938 30.03125 39.09375 L 32.3125 39.09375 C 33.570313 39.09375 34.703125 38.707031 35.375 37.8125 C 36.039063 36.925781 35.984375 35.648438 35.375 34.53125 C 35.375 34.527344 35.375 34.503906 35.375 34.5 C 34.882813 33.582031 33.214844 30.960938 31.59375 28.40625 C 30.242188 26.277344 29.367188 24.929688 28.96875 24.3125 C 29.683594 23.855469 32.070313 22.335938 34.46875 20.8125 L 35 23.875 C 35.023438 23.953125 35.054688 24.023438 35.09375 24.09375 C 35.257813 24.476563 35.425781 24.875 35.78125 25.25 C 36.136719 25.625 36.691406 25.925781 37.28125 26 C 37.34375 26.007813 37.40625 26.007813 37.46875 26 C 37.46875 26 44.492188 25.59375 45.8125 25.59375 C 45.832031 25.59375 45.855469 25.59375 45.875 25.59375 C 46.761719 25.539063 47.566406 25.382813 48.28125 25 C 48.996094 24.617188 49.605469 23.894531 49.6875 23 C 49.6875 22.988281 49.6875 22.980469 49.6875 22.96875 C 49.71875 22.445313 49.660156 21.9375 49.40625 21.5 C 49.152344 21.0625 48.726563 20.792969 48.34375 20.65625 C 47.574219 20.386719 46.914063 20.453125 46.28125 20.40625 C 46.269531 20.40625 46.261719 20.40625 46.25 20.40625 L 41.125 20.125 L 40.6875 15.40625 C 40.671875 15.226563 40.605469 15.054688 40.5 14.90625 C 40.441406 14.382813 40.269531 13.847656 39.96875 13.3125 C 39.222656 11.925781 37.582031 9.464844 37.5 9.34375 C 37.460938 9.261719 37.46875 9.300781 37.4375 9.25 C 37.316406 9.054688 37.199219 9.003906 37.125 8.9375 C 37.03125 8.855469 36.9375 8.75 36.8125 8.65625 C 36.566406 8.464844 36.25 8.234375 35.875 7.96875 C 35.121094 7.433594 34.152344 6.777344 33.1875 6.125 C 31.304688 4.851563 29.527344 3.683594 29.4375 3.625 C 29.40625 3.601563 29.375 3.585938 29.34375 3.5625 C 28.8125 3.171875 28.195313 2.988281 27.59375 2.96875 Z M 44.5 3 C 41.464844 3 39 5.464844 39 8.5 C 39 11.535156 41.464844 14 44.5 14 C 47.535156 14 50 11.535156 50 8.5 C 50 5.464844 47.535156 3 44.5 3 Z M 27.21875 5 C 27.230469 5 27.238281 5 27.25 5 C 27.636719 4.933594 27.929688 4.980469 28.1875 5.1875 C 28.207031 5.210938 28.226563 5.230469 28.25 5.25 C 28.25 5.25 30.144531 6.484375 32.0625 7.78125 C 33.023438 8.429688 33.988281 9.078125 34.71875 9.59375 C 35.082031 9.851563 35.386719 10.089844 35.59375 10.25 C 35.699219 10.328125 35.773438 10.402344 35.8125 10.4375 C 35.832031 10.453125 35.789063 10.34375 35.78125 10.34375 C 35.78125 10.34375 37.585938 13.101563 38.21875 14.28125 C 38.574219 14.914063 38.582031 15.261719 38.5 15.53125 C 38.417969 15.800781 38.167969 16.078125 37.75 16.34375 C 37.46875 16.523438 36.097656 17.394531 35 18.09375 C 34.746094 18.144531 34.523438 18.289063 34.375 18.5 C 31.1875 20.53125 27.0625 23.15625 27.0625 23.15625 C 26.597656 23.449219 26.457031 24.066406 26.75 24.53125 C 26.75 24.53125 28.28125 26.910156 29.90625 29.46875 C 31.53125 32.027344 33.308594 34.875 33.625 35.46875 C 33.625 35.480469 33.625 35.488281 33.625 35.5 C 34 36.175781 33.902344 36.421875 33.75 36.625 C 33.597656 36.828125 33.15625 37.09375 32.3125 37.09375 L 23.84375 37.09375 C 23.667969 37.007813 23.472656 36.976563 23.28125 37 C 23.183594 37.015625 23.089844 37.046875 23 37.09375 L 16.1875 37.09375 C 15.554688 37.09375 15.320313 36.925781 15.15625 36.75 C 14.992188 36.574219 14.90625 36.320313 14.90625 36.09375 C 14.90625 35.792969 14.941406 35.679688 15.09375 35.53125 C 15.246094 35.382813 15.601563 35.175781 16.3125 35.09375 C 17.035156 35.011719 20.011719 34.925781 22.65625 34.875 C 25.300781 34.824219 27.71875 34.8125 27.71875 34.8125 C 28.085938 34.808594 28.421875 34.601563 28.589844 34.273438 C 28.761719 33.949219 28.738281 33.554688 28.53125 33.25 L 21.46875 22.90625 C 21.460938 22.894531 21.476563 22.886719 21.46875 22.875 L 21.4375 22.84375 C 20.789063 21.675781 20.800781 20.988281 21.09375 20.3125 C 21.390625 19.628906 22.15625 18.878906 23.1875 18.125 L 31.46875 12.3125 C 31.726563 12.132813 31.882813 11.84375 31.894531 11.53125 C 31.910156 11.21875 31.773438 10.917969 31.53125 10.71875 L 27.3125 7.40625 C 27.136719 7.265625 26.914063 7.1875 26.6875 7.1875 L 16.78125 7.40625 C 16.75 7.40625 16.71875 7.40625 16.6875 7.40625 C 16.410156 7.4375 15.867188 7.394531 15.5 7.28125 C 15.359375 7.238281 15.28125 7.191406 15.21875 7.15625 C 15.203125 6.980469 15.230469 6.914063 15.5 6.71875 C 15.808594 6.492188 16.390625 6.28125 17.03125 6.09375 C 17.046875 6.089844 17.046875 6.066406 17.0625 6.0625 Z M 44.5 5 C 46.464844 5 48 6.535156 48 8.5 C 48 10.464844 46.464844 12 44.5 12 C 42.535156 12 41 10.464844 41 8.5 C 41 6.535156 42.535156 5 44.5 5 Z M 0.8125 12 C 0.308594 12.105469 -0.03125 12.574219 0.015625 13.082031 C 0.0625 13.59375 0.488281 13.988281 1 14 L 20 14 C 20.394531 14.058594 20.785156 13.882813 21 13.546875 C 21.214844 13.214844 21.214844 12.785156 21 12.453125 C 20.785156 12.117188 20.394531 11.941406 20 12 L 1 12 C 0.9375 11.996094 0.875 11.996094 0.8125 12 Z M 0.8125 17 C 0.308594 17.105469 -0.03125 17.574219 0.015625 18.082031 C 0.0625 18.59375 0.488281 18.988281 1 19 L 15 19 C 15.394531 19.058594 15.785156 18.882813 16 18.546875 C 16.214844 18.214844 16.214844 17.785156 16 17.453125 C 15.785156 17.117188 15.394531 16.941406 15 17 L 1 17 C 0.9375 16.996094 0.875 16.996094 0.8125 17 Z M 38.9375 17.96875 L 39.21875 21.1875 C 39.265625 21.679688 39.664063 22.066406 40.15625 22.09375 L 46.125 22.40625 L 46.15625 22.40625 C 46.902344 22.457031 47.535156 22.476563 47.6875 22.53125 C 47.683594 22.527344 47.703125 22.59375 47.6875 22.84375 C 47.667969 23.015625 47.632813 23.09375 47.34375 23.25 C 47.042969 23.410156 46.488281 23.542969 45.8125 23.59375 C 45.785156 23.59375 45.777344 23.59375 45.75 23.59375 C 44.050781 23.597656 37.816406 23.984375 37.53125 24 C 37.511719 23.996094 37.515625 24.003906 37.5 24 C 37.339844 23.976563 37.3125 23.941406 37.25 23.875 C 37.195313 23.816406 37.066406 23.644531 36.96875 23.4375 L 36.3125 19.65625 C 37.222656 19.078125 38.582031 18.199219 38.84375 18.03125 C 38.875 18.011719 38.90625 17.988281 38.9375 17.96875 Z M 0.8125 22 C 0.308594 22.105469 -0.03125 22.574219 0.015625 23.082031 C 0.0625 23.59375 0.488281 23.988281 1 24 L 15 24 C 15.394531 24.058594 15.785156 23.882813 16 23.546875 C 16.214844 23.214844 16.214844 22.785156 16 22.453125 C 15.785156 22.117188 15.394531 21.941406 15 22 L 1 22 C 0.9375 21.996094 0.875 21.996094 0.8125 22 Z M 0.8125 27 C 0.308594 27.105469 -0.03125 27.574219 0.015625 28.082031 C 0.0625 28.59375 0.488281 28.988281 1 29 L 19 29 C 19.394531 29.058594 19.785156 28.882813 20 28.546875 C 20.214844 28.214844 20.214844 27.785156 20 27.453125 C 19.785156 27.117188 19.394531 26.941406 19 27 L 1 27 C 0.9375 26.996094 0.875 26.996094 0.8125 27 Z M 23.71875 39.09375 L 27.1875 39.09375 C 26.433594 39.855469 26.089844 40.222656 24.84375 41.46875 C 22.710938 43.601563 20.296875 45.980469 19.53125 46.65625 C 18.585938 47.507813 17.898438 47.898438 17.53125 48 C 17.179688 48.097656 17.140625 48.050781 16.90625 47.84375 C 16.753906 47.640625 16.699219 47.472656 16.75 47.15625 C 16.808594 46.792969 17.042969 46.261719 17.5625 45.65625 C 18.957031 44 23.074219 39.753906 23.71875 39.09375 Z "></path>
</g>
</svg>